<?xml version="1.0" standalone="no"?>
<!DOCTYPE svg PUBLIC "-//W3C//DTD SVG 20010904//EN"
 "http://www.w3.org/TR/2001/REC-SVG-20010904/DTD/svg10.dtd">
<svg version="1.0" xmlns="http://www.w3.org/2000/svg"
 width="1024.000000pt" height="1024.000000pt" viewBox="0 0 1024.000000 1024.000000"
 preserveAspectRatio="xMidYMid meet">
<metadata>
Created by potrace 1.14, written by Peter Selinger 2001-2017
</metadata>
<g transform="translate(0.000000,1024.000000) scale(0.100000,-0.100000)"
fill="#000000" stroke="none">
<path d="M0 8124 c0 -2 75 -153 166 -336 92 -183 323 -648 514 -1033 489 -985
1012 -2038 1545 -3110 251 -506 524 -1056 607 -1222 83 -167 153 -303 157
-303 3 0 102 195 220 433 198 399 965 1945 1327 2672 l154 310 1 -390 c1 -214
2 -405 4 -423 13 -154 17 -194 19 -209 2 -10 7 -40 10 -68 4 -27 11 -68 16
-90 5 -22 12 -56 15 -75 14 -79 63 -249 107 -365 100 -267 234 -502 425 -744
68 -85 360 -386 424 -435 116 -90 249 -186 257 -186 6 0 12 -4 14 -8 8 -21
256 -156 403 -219 147 -64 425 -147 562 -167 21 -3 49 -8 63 -11 195 -35 688
-41 845 -10 11 3 36 7 55 9 86 12 121 19 217 42 55 13 132 34 170 46 37 12 73
22 78 24 37 7 222 88 336 145 322 163 599 385 884 709 72 82 216 283 280 391
44 76 152 300 188 395 32 80 81 238 91 290 2 10 11 46 19 79 9 33 19 83 23
110 5 28 9 52 9 55 1 3 5 32 9 65 4 33 10 74 14 90 3 17 7 820 9 1786 l4 1757
-641 -1 -640 0 -1 -1631 c0 -897 -2 -1658 -3 -1691 -11 -189 -52 -351 -133
-535 -18 -40 -102 -188 -120 -210 -6 -8 -29 -39 -51 -67 -75 -103 -211 -233
-327 -316 -44 -31 -85 -60 -90 -64 -49 -37 -288 -142 -356 -157 -194 -43 -282
-53 -442 -50 -270 4 -502 68 -720 197 -315 187 -579 516 -675 842 -32 108 -51
202 -61 295 -4 47 -8 828 -7 1736 l1 1651 -741 1 c-408 0 -746 -3 -751 -7 -5
-3 -111 -211 -235 -461 -124 -250 -413 -832 -642 -1293 -229 -460 -416 -840
-416 -844 0 -3 -6 -14 -13 -22 -7 -9 -26 -45 -42 -81 -16 -36 -34 -71 -40 -79
-5 -8 -19 -35 -30 -60 -11 -25 -33 -71 -49 -101 l-29 -55 -447 900 c-245 495
-581 1171 -745 1501 l-298 602 -749 0 c-411 0 -748 -2 -748 -4z"/>
</g>
</svg>
